<?xml version="1.0" encoding="utf-8"?>
<!-- Generator: Adobe Illustrator 27.8.1, SVG Export Plug-In . SVG Version: 6.00 Build 0)  -->
<svg version="1.1" id="Layer_1" xmlns="http://www.w3.org/2000/svg" xmlns:xlink="http://www.w3.org/1999/xlink" x="0px" y="0px"
	 viewBox="0 0 16 16" style="enable-background:new 0 0 16 16;" xml:space="preserve">
<style type="text/css">
	.st0{fill:#FC7F7F;}
</style>
<path class="st0" d="M8.5,8.7V3.9h1.6L8,1.2L5.9,3.9h1.6v4.9H8.5z"/>
<path class="st0" d="M8.2,9.2l4.6-1.5l0.5,1.5l1.9-2.8L12,5.2l0.5,1.5L7.8,8.2L8.2,9.2z"/>
<path class="st0" d="M7.6,9l2.8,3.9l-1.3,0.9l3.3,1l0.1-3.4l-1.3,0.9L8.4,8.4L7.6,9z"/>
<path class="st0" d="M7.6,8.4l-2.9,3.9l-1.3-0.9l0.1,3.4l3.3-0.9l-1.3-0.9L8.4,9L7.6,8.4z"/>
<path class="st0" d="M8.2,8.2L3.5,6.7L4,5.2L0.8,6.4l1.9,2.8l0.5-1.5l4.6,1.5L8.2,8.2z"/>
</svg>
